<svg width="151" height="55" viewBox="0 0 151 55" fill="none" xmlns="http://www.w3.org/2000/svg">
<path d="M12.384 16.614C14.4533 16.614 16.2347 16.9873 17.728 17.734C19.2427 18.4593 20.3947 19.494 21.184 20.838C21.9947 22.1606 22.4 23.718 22.4 25.51C22.4 26.1286 22.3253 26.9073 22.176 27.846C21.792 30.0433 20.96 31.9953 19.68 33.702C18.4213 35.4086 16.8107 36.7313 14.848 37.67C12.9067 38.6086 10.7627 39.078 8.416 39.078H0L3.968 16.614H12.384ZM8.896 34.406C10.9653 34.406 12.6827 33.83 14.048 32.678C15.4133 31.526 16.2667 29.9153 16.608 27.846C16.7147 27.206 16.768 26.6726 16.768 26.246C16.768 24.6673 16.288 23.4513 15.328 22.598C14.368 21.7233 13.0027 21.286 11.232 21.286H8.608L6.304 34.406H8.896Z" fill="#ECECEC"/>
<path d="M31.922 20.934L31.122 25.606H38.45L37.714 29.734H30.386L29.49 34.758H37.778L37.01 39.078H23.25L27.218 16.614H40.978L40.21 20.934H31.922Z" fill="#ECECEC"/>
<path d="M48.6585 16.614L51.2505 33.574L59.7945 16.614H65.6185L53.6825 39.078H46.8345L42.8345 16.614H48.6585Z" fill="#ECECEC"/>
<path d="M85.688 35.11H77.304L75.256 39.078H69.528L81.624 16.614H87.96L92.12 39.078H86.328L85.688 35.11ZM85.048 30.95L83.736 22.63L79.448 30.95H85.048Z" fill="#ECECEC"/>
<path d="M100.802 34.918H107.97L107.234 39.078H94.5938L98.5618 16.614H104.034L100.802 34.918Z" fill="#ECECEC"/>
<path d="M118.516 20.934L117.716 25.606H125.044L124.308 29.734H116.98L116.084 34.758H124.372L123.604 39.078H109.844L113.812 16.614H127.572L126.804 20.934H118.516Z" fill="#ECECEC"/>
<path d="M141.812 27.942L147.284 39.078H140.916L137.556 32.198L132.308 39.078H126.1L135.316 27.654L129.908 16.614H136.276L139.604 23.398L144.756 16.614H150.964L141.812 27.942Z" fill="#ECECEC"/>
<path d="M83.6102 4.66036L57.6419 49.6476L53.1859 49.4955L79.1543 4.50827L83.6102 4.66036Z" fill="#ECECEC"/>
</svg>
